<?xml version="1.0" encoding="UTF-8"?>
<svg id="Calque_2" data-name="Calque 2" xmlns="http://www.w3.org/2000/svg" xmlns:xlink="http://www.w3.org/1999/xlink" viewBox="0 0 301.23 301.23">
  <defs>
    <style>
      .cls-1 {
        fill: url(#Dégradé_sans_nom_954);
      }

      .cls-1, .cls-2, .cls-3, .cls-4 {
        stroke-width: 0px;
      }

      .cls-2 {
        fill: #5c1cd3;
      }

      .cls-3 {
        fill: url(#Dégradé_sans_nom_955);
      }

      .cls-5 {
        fill: url(#Dégradé_sans_nom_956);
        stroke: #1d160e;
        stroke-miterlimit: 10;
        stroke-width: .25px;
      }

      .cls-4 {
        fill: #403b3a;
      }
    </style>
    <linearGradient id="Dégradé_sans_nom_956" data-name="Dégradé sans nom 956" x1="52.3" y1="21.28" x2="265.13" y2="234.1" gradientTransform="translate(-51.9 172.55) rotate(-45)" gradientUnits="userSpaceOnUse">
      <stop offset=".09" stop-color="#1d1d1b"/>
      <stop offset=".49" stop-color="#4f4e4e"/>
      <stop offset=".99" stop-color="#545555"/>
    </linearGradient>
    <linearGradient id="Dégradé_sans_nom_955" data-name="Dégradé sans nom 955" x1="32.04" y1="127.69" x2="285.39" y2="127.69" gradientTransform="translate(-51.9 172.55) rotate(-45)" gradientUnits="userSpaceOnUse">
      <stop offset=".09" stop-color="#1d1d1b"/>
      <stop offset=".49" stop-color="#575656"/>
      <stop offset=".99" stop-color="#4a4949"/>
    </linearGradient>
    <linearGradient id="Dégradé_sans_nom_954" data-name="Dégradé sans nom 954" x1="72.12" y1="41.13" x2="245.28" y2="214.29" gradientTransform="translate(-51.9 172.55) rotate(-45)" gradientUnits="userSpaceOnUse">
      <stop offset=".05" stop-color="#6f29f3"/>
      <stop offset=".49" stop-color="#d363ff"/>
      <stop offset=".99" stop-color="#7648f4"/>
    </linearGradient>
  </defs>
  <g id="Calque_1-2" data-name="Calque 1">
    <g>
      <circle class="cls-5" cx="150.62" cy="150.62" r="150.49"/>
      <g>
        <circle class="cls-3" cx="150.62" cy="150.62" r="126.68"/>
        <path class="cls-4" d="M240.19,61.04c35.9,35.08,47.17,91.91,27.52,138.08-34.4,83.23-143.11,104.89-206.75,41.16C-2.78,176.63,18.89,67.92,102.11,33.52c46.16-19.65,103-8.38,138.08,27.52h0ZM240.19,61.04c-35.09-35.86-91.91-47.11-138.04-27.43C19.06,68.01-2.55,176.57,61.13,240.1c63.53,63.68,172.09,42.07,206.49-41.02,19.67-46.13,8.44-102.95-27.43-138.04h0Z"/>
      </g>
      <g>
        <path class="cls-1" d="M151.05,84.3c-40.96-18.7-81.92-37.39-122.88-56.09,18.69,40.81,37.39,81.62,56.08,122.42-18.68,40.81-37.36,81.62-56.04,122.43,40.8-18.62,81.6-37.24,122.4-55.86,40.8,18.62,81.6,37.25,122.4,55.87-18.67-40.76-37.33-81.51-56-122.27,18.68-40.87,37.37-81.74,56.05-122.6l-122.01,56.09ZM186.49,150.52h-.07c0,.06,0,.12.01.18h.06s48.92,84.71,48.92,84.71l-84.65-48.89c-.1,0-.21,0-.31,0l-84.63,48.88,48.92-84.71h.03c0-.06,0-.12.02-.18h-.05s-48.92-84.71-48.92-84.71l84.71,48.92v.03c.06-.01.12-.03.19-.04l84.7-48.92-48.92,84.71Z"/>
        <g>
          <path class="cls-2" d="M151.05,84.31c.1-.05-123.35-55.99-122.81-56.13,0,.02,56.12,122.44,56.12,122.45-.05.03-56.06,122.41-56.11,122.45-.31-.08,122.41-55.96,122.39-55.94,0,0,122.41,55.84,122.41,55.84-.21.85-56.06-122.32-56.18-122.16.06-.05,56.06-122.58,56.11-122.64.61.18-122.05,56.04-121.93,56.14h0ZM151.05,84.29c.2-.04,121.99-56.2,122.18-56.25.11,0-56.16,122.76-56.11,122.82-.17-.19,56.15,122.28,56.12,122.45-.03.11-122.54-56.07-122.66-56.03.18-.03-122.42,55.86-122.46,55.88-.04.04,56.13-122.78,56.05-122.48-.04-.18-56.1-122.45-56.15-122.61,0-.11,122.97,56.28,123.03,56.23h0Z"/>
          <path class="cls-2" d="M186.5,150.54c-.18.08,48.96,84.69,49.12,85.09-.5-.07-84.76-49.29-85.17-48.99.06-.18-84.64,48.97-84.76,48.91.01-.18,49.6-85.7,48.98-84.98.02-.37-49.15-84.73-49.17-85.06.15.14,85.58,49.29,85,49.15.35.01,84.69-48.89,85.14-49.06.05.07-49.12,84.8-49.14,84.94h0ZM186.49,150.51c.03.11,48.86-85.23,48.97-84.63-.22.05-84.65,49.08-84.9,49,.47.33-84.66-48.94-84.79-48.97.19-.87,48.92,84.75,49.04,84.57,0,0-.06-.04-.06-.04.03,0,.1,0,.13,0,0,0,0,.08,0,.08v.18s-.02.07-.02.07h-.07c.16-.29-48.91,84.69-48.91,84.65-.34-.06,84.64-48.98,84.59-49,.33.02,85.08,48.67,84.9,49.01,0-.2-49.25-85.01-48.86-84.94h0Z"/>
        </g>
      </g>
    </g>
  </g>
</svg>